<?xml version="1.0" encoding="UTF-8"?>
<!DOCTYPE svg PUBLIC "-//W3C//DTD SVG 1.1//EN" "http://www.w3.org/Graphics/SVG/1.1/DTD/svg11.dtd">
<!-- Creator: CorelDRAW X8 -->
<?xml-stylesheet href="18088-logoLink-b8f202ec-f53b-43ed-902e-e2fca2ae364f.css" type="text/css"?>
<svg xmlns="http://www.w3.org/2000/svg" xml:space="preserve" width="1586.2mm" height="399.467mm" version="1.1" style="shape-rendering:geometricPrecision; text-rendering:geometricPrecision; image-rendering:optimizeQuality; fill-rule:evenodd; clip-rule:evenodd"
viewBox="0 0 159054 40056"
 xmlns:xlink="http://www.w3.org/1999/xlink">
 <g id="Capa_x0020_1">
  <metadata id="CorelCorpID_0Corel-Layer"/>
  <path class="fil0 str0" d="M137369 7c48,55 97,111 145,166l21530 0 0 39709 -22447 0c-53,56 -107,111 -160,167 5053,-5259 8177,-12516 8177,-20530 0,-7509 -2743,-14353 -7245,-19512z"/>
  <path class="fil0 str0" d="M96758 40049c-54,-56 -107,-111 -160,-167l-96588 0 0 -39709 95670 0c49,-55 97,-111 146,-166 -4502,5159 -7245,12003 -7245,19512 0,8014 3124,15270 8177,20530z"/>
  <g id="_1658576701728">
   <path class="fil1 str1" d="M124870 7273c970,0 1757,786 1757,1757 0,971 -787,1757 -1757,1757 -971,0 -1758,-786 -1758,-1757 0,-971 787,-1757 1758,-1757z"/>
   <line class="fil2 str2" x1="118146" y1="8954" x2="124870" y2= "9010" />
   <polygon class="fil1 str1" points="118288,10392 118288,10392 "/>
   <path class="fil1 str1" d="M118357 31159l-173 0 173 2 -27 5452 -2516 3 -735 -2123 -676 -1951c-304,-68 -604,-143 -901,-226l-1825 1151 -2031 1281 -2036 -1346 -2037 -1346 773 -2112 483 -1317c-439,-413 -847,-850 -1221,-1307l-1352 -29 -2469 -53 -780 -2180 -780 -2180 1987 -1294 742 -484c-39,-374 -60,-752 -60,-1135 0,-386 21,-768 60,-1146l-723 -502 -1963 -1366 774 -2182 774 -2182 2442 18 1345 10c372,-456 779,-892 1216,-1304l-440 -1339 -708 -2157 2033 -1350 2033 -1351 1963 1324 1763 1187c296,-83 595,-159 899,-228l752 -1952 818 -2125 2351 -3 2 5637 -141 0 141 1 1 1437c-5433,199 -9349,4681 -9128,9884 207,4860 3876,8696 8841,9031 20,2 184,-1 383,-4l-27 1856z"/>
   <polyline class="fil2 str1" points="118384,29303 118384,29401 118375,31159 118384,29401 118384,29303 "/>
   <line class="fil1 str1" x1="118458" y1="29196" x2="118458" y2= "29196" />
   <path class="fil1 str1" d="M125022 29812c971,0 1758,787 1758,1758 0,970 -787,1757 -1758,1757 -970,0 -1757,-787 -1757,-1757 0,-971 787,-1758 1757,-1758z"/>
   <line class="fil2 str2" x1="118184" y1="31159" x2="124021" y2= "31216" />
   <path class="fil2 str3" d="M116882 20262l12020 -6m1830 -1904c898,0 1625,786 1625,1757 0,971 -727,1757 -1625,1757 -898,0 -1625,-786 -1625,-1757 0,-971 727,-1757 1625,-1757z"/>
   <path class="fil2 str3" d="M113503 18352l0 3361 2899 3057 9868 0 2950 1763m-15708 -4855l0 -3361 2898 -3057 9869 0 2855 -1707m1483 12057c877,0 1588,787 1588,1757 0,971 -711,1758 -1588,1758 -876,0 -1587,-787 -1587,-1758 0,-970 711,-1757 1587,-1757zm-138 -14746c877,0 1587,786 1587,1757 0,971 -710,1757 -1587,1757 -567,0 -1065,-329 -1345,-825l-3 -5c-152,-269 -239,-586 -239,-927 0,-971 711,-1757 1587,-1757z"/>
  </g>
 </g>
</svg>
